# xmcd CD database file
#
# Track frame offsets:
#	150
#	13942
#	32217
#	51599
#	68593
#	90855
#	110899
#	127189
#	147206
#	165755
#
# Disc length: 2387 seconds
#
# Revision: 0
# Processed by: cddbd v1.5.1PL2 Copyright (c) Steve Scherf et al.
# Submitted via: CDex 1.60beta1
#
DISCID=8709510a
DTITLE=Thomas Anders - Songs Forever
DYEAR=2006
DGENRE=Jazz
TTITLE0=Songs That Live Forever
TTITLE1=All Around The World
TTITLE2=Cry For Help
TTITLE3=Have I Told You Lately
TTITLE4=True
TTITLE5=You're My Heart, You're My Soul
TTITLE6=Is This Love
TTITLE7=Tell It To My Heart
TTITLE8=For Your Eyes Only
TTITLE9=Songs That Live Forever
EXTD=YEAR: 2006
EXTT0=
EXTT1=
EXTT2=
EXTT3=
EXTT4=
EXTT5=
EXTT6=
EXTT7=
EXTT8=
EXTT9=
PLAYORDER=
